# File created by Blade
# Date/Time:  Thu Jan 22 19:18:16 2015
# Frame Rate: 120.000 fps
#------------------------------------------------------
:FULLY-SPECIFIED
:DEGREES
1249
root -0.568244 31.676454 -8.662081 64.570559 11.515658 -6.884011
RightUpLeg -67.486338 -5.771665 0.309297
RightLeg -4.231386 -0.000000 0.000000
RightFoot 0.114001 -7.485291 12.927305
RightToeBase 6.786680 -0.000000 -0.000000
LeftUpLeg -73.957510 20.443237 23.236115
LeftLeg 3.087604 -0.000000 -0.000000
LeftFoot 1.003479 -0.283928 -24.181079
LeftToeBase 0.438912 -0.000000 -0.000000
Spine 32.321058 3.581830 -19.098419
RightShoulder 2.954118 21.436402 -38.446450
RightArm 72.894501 -14.728582 53.967617
RightForeArm -16.284114 -0.000000 34.886181
RightHand 14.697099 -0.000000 2.506574
RightHandThumb1 -24.326973 -0.000000 -32.862282
LeftShoulder -3.603193 -19.273224 23.783724
LeftArm 34.051444 -0.975666 -51.401351
LeftForeArm 13.655435 -0.000000 34.188995
LeftHand -9.807400 0.000000 -2.547562
LeftHandThumb1 -26.253704 0.000000 33.147579
Head -49.888948 -12.924022 -9.379744
1250
root -0.554061 31.682139 -8.651754 64.092221 11.436003 -6.748162
RightUpLeg -67.024266 -5.905127 0.199917
RightLeg -4.136476 -0.000000 0.000000
RightFoot 0.054931 -7.449175 12.933366
RightToeBase 6.795310 -0.000000 -0.000000
LeftUpLeg -73.508613 20.092415 23.314279
LeftLeg 3.226461 -0.000000 -0.000000
LeftFoot 0.829386 -0.382963 -23.944660
LeftToeBase 0.654328 -0.000000 -0.000000
Spine 32.163022 3.384274 -18.856507
RightShoulder 2.953291 21.290782 -38.300498
RightArm 72.333522 -15.340801 54.093295
RightForeArm -16.302484 -0.000000 34.949082
RightHand 14.677873 0.000000 2.448819
RightHandThumb1 -24.326973 -0.000000 -32.862282
LeftShoulder -3.757659 -18.737293 23.487003
LeftArm 34.136481 -0.555491 -51.566402
LeftForeArm 13.470667 -0.000000 34.360089
LeftHand -9.611342 -0.000000 -2.908157
LeftHandThumb1 -26.253704 0.000000 33.147579
Head -49.980103 -12.876490 -9.485238
1251
root -0.560783 31.685529 -8.630929 63.608042 11.186042 -6.783620
RightUpLeg -66.614281 -5.743375 -0.010401
RightLeg -4.006942 -0.000000 0.000000
RightFoot 0.018747 -7.517092 12.851717
RightToeBase 6.746743 -0.000000 -0.000000
LeftUpLeg -72.943206 20.000056 23.386852
LeftLeg 3.374649 -0.000000 -0.000000
LeftFoot 0.605865 -0.543191 -23.821936
LeftToeBase 0.863613 -0.000000 -0.000000
Spine 31.844171 3.524695 -18.841419
RightShoulder 2.936971 21.195254 -37.989654
RightArm 71.667492 -16.007283 54.253305
RightForeArm -16.314218 -0.000000 35.039005
RightHand 14.690948 -0.000000 2.428065
RightHandThumb1 -24.326973 -0.000000 -32.862282
LeftShoulder -3.875531 -18.570876 23.438345
LeftArm 33.869426 0.076519 -51.828589
LeftForeArm 13.332394 -0.000000 34.572461
LeftHand -9.531048 -0.000000 -2.989670
LeftHandThumb1 -26.253704 0.000000 33.147579
Head -50.008825 -12.748500 -9.324167
1252
root -0.555495 31.690328 -8.613694 63.139599 10.971480 -6.724968
RightUpLeg -66.205224 -5.699066 -0.262610
RightLeg -3.859818 -0.000000 0.000000
RightFoot -0.045658 -7.556712 12.857701
RightToeBase 6.759340 -0.000000 -0.000000
LeftUpLeg -72.446670 19.768459 23.470910
LeftLeg 3.585221 -0.000000 -0.000000
LeftFoot 0.374525 -0.630603 -23.676973
LeftToeBase 1.538079 -0.000000 -0.000000
Spine 31.565277 3.518160 -18.929119
RightShoulder 3.020875 21.324174 -37.536550
RightArm 70.816208 -16.733430 54.313992
RightForeArm -16.267269 -0.000000 35.213472
RightHand 14.713356 -0.000000 2.428512
RightHandThumb1 -24.326973 -0.000000 -32.862282
LeftShoulder -4.160636 -18.040639 23.520361
LeftArm 33.938516 0.483690 -52.306948
LeftForeArm 13.322782 -0.000000 34.766438
LeftHand -9.405053 -0.000000 -3.000233
LeftHandThumb1 -26.253704 0.000000 33.147579
Head -50.088995 -12.544909 -8.908854
1253
root -0.539270 31.698429 -8.598563 62.666045 10.789484 -6.606594
RightUpLeg -65.774328 -5.743817 -0.498656
RightLeg -3.722854 -0.000000 0.000000
RightFoot -0.083602 -7.564994 12.883881
RightToeBase 6.682419 -0.000000 -0.000000
LeftUpLeg -72.024470 19.522502 23.391736
LeftLeg 3.783904 -0.000000 -0.000000
LeftFoot 0.329471 -0.929914 -23.702419
LeftToeBase 2.194697 -0.000000 -0.000000
Spine 31.360054 3.427052 -18.842954
RightShoulder 3.044057 21.193374 -37.324764
RightArm 70.179406 -17.302532 54.436997
RightForeArm -16.252272 0.000000 35.370982
RightHand 14.767715 -0.000000 2.519896
RightHandThumb1 -24.326973 -0.000000 -32.862282
LeftShoulder -4.306640 -17.848804 23.389193
LeftArm 33.675085 0.975286 -52.682172
LeftForeArm 13.115927 -0.000000 34.975341
LeftHand -9.095937 0.000000 -3.502216
LeftHandThumb1 -26.253704 0.000000 33.147579
Head -50.127086 -12.363733 -8.914490
1254
root -0.525220 31.704165 -8.580135 62.192324 10.642695 -6.513833
RightUpLeg -65.335160 -5.772391 -0.692802
RightLeg -3.601288 -0.000000 0.000000
RightFoot -0.126742 -7.588220 12.882805
RightToeBase 6.576832 -0.000000 -0.000000
LeftUpLeg -71.621236 19.249896 23.434685
LeftLeg 4.072179 -0.000000 -0.000000
LeftFoot 0.169888 -1.089223 -23.650433
LeftToeBase 2.760772 -0.000000 -0.000000
Spine 31.147686 3.331445 -18.704191
RightShoulder 3.021970 21.105222 -37.131808
RightArm 69.635661 -17.930292 54.468455
RightForeArm -16.230882 -0.000000 35.423298
RightHand 14.770379 0.000000 2.585239
RightHandThumb1 -24.326973 -0.000000 -32.862282
LeftShoulder -4.516591 -17.430817 23.189780
LeftArm 33.648781 1.381723 -53.010985
LeftForeArm 13.210477 -0.000000 35.193392
LeftHand -9.148889 -0.000000 -3.369422
LeftHandThumb1 -26.253704 0.000000 33.147579
Head -50.218631 -12.275986 -8.913550
1255
root -0.510312 31.711469 -8.556454 61.683607 10.441490 -6.404969
RightUpLeg -64.856259 -5.789642 -0.927589
RightLeg -3.482262 -0.000000 0.000000
RightFoot -0.189267 -7.622453 12.924283
RightToeBase 6.586892 -0.000000 -0.000000
LeftUpLeg -71.129860 18.932761 23.520806
LeftLeg 4.363006 -0.000000 -0.000000
LeftFoot -0.070618 -1.119803 -23.632724
LeftToeBase 3.577080 -0.000000 -0.000000
Spine 30.938142 3.340171 -18.690776
RightShoulder 3.045700 20.952088 -36.769039
RightArm 69.054785 -18.479214 54.412390
RightForeArm -16.129245 0.000000 35.509831
RightHand 15.003608 -0.000000 2.658967
RightHandThumb1 -24.326973 -0.000000 -32.862282
LeftShoulder -4.599800 -17.255192 23.159744
LeftArm 33.286540 1.876224 -53.465332
LeftForeArm 13.225176 -0.000000 35.512613
LeftHand -9.117298 -0.000000 -3.242345
LeftHandThumb1 -26.253704 0.000000 33.147579
Head -50.208687 -12.220708 -8.728247
1256
root -0.495269 31.717903 -8.532975 61.181609 10.246200 -6.321320
RightUpLeg -64.388063 -5.766372 -1.200859
RightLeg -3.349785 -0.000000 0.000000
RightFoot -0.248163 -7.667380 12.948662
RightToeBase 6.537810 -0.000000 -0.000000
LeftUpLeg -70.668086 18.653655 23.607828
LeftLeg 4.696344 -0.000000 -0.000000
LeftFoot -0.286578 -1.194228 -23.587035
LeftToeBase 4.116520 -0.000000 -0.000000
Spine 30.717419 3.322922 -18.614708
RightShoulder 3.075482 20.817931 -36.505661
RightArm 68.426614 -19.016414 54.486436
RightForeArm -16.035866 -0.000000 35.702530
RightHand 14.900971 -0.000000 2.686650
RightHandThumb1 -24.326973 -0.000000 -32.862282
LeftShoulder -4.741765 -16.930194 23.003414
LeftArm 33.125459 2.307724 -53.820074
LeftForeArm 13.208763 -0.000000 35.727833
LeftHand -9.068288 -0.000000 -3.319728
LeftHandThumb1 -26.253704 0.000000 33.147579
Head -50.211007 -12.193968 -8.684438
1257
root -0.481118 31.724179 -8.504166 60.645523 10.059584 -6.247961
RightUpLeg -63.877056 -5.769201 -1.355486
RightLeg -3.242786 -0.000000 0.000000
RightFoot -0.256813 -7.658742 12.835864
RightToeBase 6.406101 -0.000000 -0.000000
LeftUpLeg -70.130516 18.318527 23.843961
LeftLeg 5.046910 -0.000000 -0.000000
LeftFoot -0.592485 -1.118057 -23.639605
LeftToeBase 4.553389 -0.000000 -0.000000
Spine 30.528040 3.340188 -18.512949
RightShoulder 3.085653 20.613122 -36.287112
RightArm 67.886719 -19.520359 54.545413
RightForeArm -16.061335 -0.000000 35.816206
RightHand 14.946103 -0.000000 2.848225
RightHandThumb1 -24.326973 -0.000000 -32.862282
LeftShoulder -4.831745 -16.457817 22.782483
LeftArm 33.078997 2.646367 -54.092498
LeftForeArm 13.069330 -0.000000 35.975830
LeftHand -8.872850 0.000000 -3.373888
LeftHandThumb1 -26.253704 0.000000 33.147579
Head -50.175571 -12.158280 -8.664238
1258
root -0.463896 31.731006 -8.477524 60.159260 9.866359 -6.164042
RightUpLeg -63.425114 -5.786347 -1.517102
RightLeg -3.117454 -0.000000 0.000000
RightFoot -0.314124 -7.621988 12.870566
RightToeBase 6.347320 -0.000000 -0.000000
LeftUpLeg -69.712552 18.100400 23.765645
LeftLeg 5.336517 -0.000000 -0.000000
LeftFoot -0.741803 -1.261861 -23.610899
LeftToeBase 5.262568 -0.000000 -0.000000
Spine 30.280088 3.293566 -18.428993
RightShoulder 3.136068 20.471949 -36.057230
RightArm 67.265355 -20.031671 54.760170
RightForeArm -16.176307 0.000000 35.952179
RightHand 14.899140 0.000000 2.967462
RightHandThumb1 -24.326973 -0.000000 -32.862282
LeftShoulder -4.939199 -16.178594 22.510535
LeftArm 32.758238 3.397780 -53.996138
LeftForeArm 12.509563 -0.000000 36.438497
LeftHand -8.832650 -0.000000 -3.137034
LeftHandThumb1 -26.253704 0.000000 33.147579
Head -50.134914 -11.984555 -8.705693
1259
root -0.443971 31.739005 -8.446167 59.663925 9.637918 -6.080870
RightUpLeg -62.981998 -5.836599 -1.595049
RightLeg -2.981707 -0.000000 0.000000
RightFoot -0.295895 -7.501316 12.749768
RightToeBase 6.193313 -0.000000 -0.000000
LeftUpLeg -69.258515 17.871022 23.715914
LeftLeg 5.653362 -0.000000 -0.000000
LeftFoot -0.943979 -1.390084 -23.669677
LeftToeBase 5.736415 -0.000000 -0.000000
Spine 30.036230 3.303203 -18.406528
RightShoulder 3.180394 20.384886 -35.759438
RightArm 66.601179 -20.574550 54.878993
RightForeArm -16.139306 0.000000 36.110967
RightHand 14.908519 -0.000000 3.059159
RightHandThumb1 -24.326973 -0.000000 -32.862282
LeftShoulder -5.105876 -15.838920 22.345285
LeftArm 32.607641 3.902669 -54.261414
LeftForeArm 12.452165 0.000000 36.710435
LeftHand -8.970028 -0.000000 -3.077312
LeftHandThumb1 -26.253704 0.000000 33.147579
Head -50.135821 -11.912553 -8.640406
